<mxfile host="Electron" agent="Mozilla/5.0 (X11; Linux x86_64) AppleWebKit/537.36 (KHTML, like Gecko) draw.io/24.7.17 Chrome/128.0.6613.36 Electron/32.0.1 Safari/537.36" version="24.7.17">
  <diagram name="Page-1" id="2YBvvXClWsGukQMizWep">
    <mxGraphModel dx="1687" dy="1389" grid="0" gridSize="10" guides="0" tooltips="1" connect="0" arrows="0" fold="1" page="0" pageScale="1" pageWidth="850" pageHeight="1100" math="0" shadow="0">
      <root>
        <mxCell id="0" />
        <mxCell id="1" parent="0" />
        <mxCell id="h3a-lBS1YhKuFZ4VshCl-32" value="" style="rounded=0;whiteSpace=wrap;html=1;fillColor=none;" vertex="1" parent="1">
          <mxGeometry x="139" y="286" width="678" height="164" as="geometry" />
        </mxCell>
        <mxCell id="h3a-lBS1YhKuFZ4VshCl-37" value="" style="endArrow=none;dashed=1;html=1;rounded=0;fontSize=12;startSize=8;endSize=8;curved=1;entryX=1;entryY=0.458;entryDx=0;entryDy=0;entryPerimeter=0;exitX=-0.002;exitY=0.358;exitDx=0;exitDy=0;exitPerimeter=0;" edge="1" parent="1" source="h3a-lBS1YhKuFZ4VshCl-32">
          <mxGeometry width="50" height="50" relative="1" as="geometry">
            <mxPoint x="288" y="344" as="sourcePoint" />
            <mxPoint x="817" y="345.36" as="targetPoint" />
          </mxGeometry>
        </mxCell>
        <mxCell id="aM9ryv3xv72pqoxQDRHE-1" value=":Interface" style="shape=umlLifeline;perimeter=lifelinePerimeter;whiteSpace=wrap;html=1;container=0;dropTarget=0;collapsible=0;recursiveResize=0;outlineConnect=0;portConstraint=eastwest;newEdgeStyle={&quot;edgeStyle&quot;:&quot;elbowEdgeStyle&quot;,&quot;elbow&quot;:&quot;vertical&quot;,&quot;curved&quot;:0,&quot;rounded&quot;:0};" parent="1" vertex="1">
          <mxGeometry x="340" y="50" width="100" height="482" as="geometry" />
        </mxCell>
        <mxCell id="aM9ryv3xv72pqoxQDRHE-2" value="" style="html=1;points=[];perimeter=orthogonalPerimeter;outlineConnect=0;targetShapes=umlLifeline;portConstraint=eastwest;newEdgeStyle={&quot;edgeStyle&quot;:&quot;elbowEdgeStyle&quot;,&quot;elbow&quot;:&quot;vertical&quot;,&quot;curved&quot;:0,&quot;rounded&quot;:0};" parent="aM9ryv3xv72pqoxQDRHE-1" vertex="1">
          <mxGeometry x="45" y="93" width="10" height="358" as="geometry" />
        </mxCell>
        <mxCell id="aM9ryv3xv72pqoxQDRHE-5" value=":Carteira" style="shape=umlLifeline;perimeter=lifelinePerimeter;whiteSpace=wrap;html=1;container=0;dropTarget=0;collapsible=0;recursiveResize=0;outlineConnect=0;portConstraint=eastwest;newEdgeStyle={&quot;edgeStyle&quot;:&quot;elbowEdgeStyle&quot;,&quot;elbow&quot;:&quot;vertical&quot;,&quot;curved&quot;:0,&quot;rounded&quot;:0};" parent="1" vertex="1">
          <mxGeometry x="662" y="49" width="100" height="487" as="geometry" />
        </mxCell>
        <mxCell id="aM9ryv3xv72pqoxQDRHE-6" value="&lt;span style=&quot;color: rgba(0, 0, 0, 0); font-family: monospace; font-size: 0px; text-align: start;&quot;&gt;%3CmxGraphModel%3E%3Croot%3E%3CmxCell%20id%3D%220%22%2F%3E%3CmxCell%20id%3D%221%22%20parent%3D%220%22%2F%3E%3CmxCell%20id%3D%222%22%20value%3D%22%26lt%3Bfont%20style%3D%26quot%3Bfont-size%3A%209px%3B%26quot%3B%26gt%3B%5Bse%20n%C3%A3o%20houve%26lt%3B%2Ffont%26gt%3B%26lt%3Bdiv%20style%3D%26quot%3Bfont-size%3A%209px%3B%26quot%3B%26gt%3B%26lt%3Bfont%20style%3D%26quot%3Bfont-size%3A%209px%3B%26quot%3B%26gt%3Berro%5D%26lt%3B%2Ffont%26gt%3B%26lt%3B%2Fdiv%26gt%3B%22%20style%3D%22text%3Bhtml%3D1%3Balign%3Dcenter%3BverticalAlign%3Dmiddle%3Bresizable%3D0%3Bpoints%3D%5B%5D%3Bautosize%3D1%3BstrokeColor%3Dnone%3BfillColor%3Dnone%3BfontSize%3D9%3B%22%20vertex%3D%221%22%20parent%3D%221%22%3E%3CmxGeometry%20x%3D%22438%22%20y%3D%22306%22%20width%3D%2275%22%20height%3D%2234%22%20as%3D%22geometry%22%2F%3E%3C%2FmxCell%3E%3C%2Froot%3E%3C%2FmxGraphModel%3E&lt;/span&gt;" style="html=1;points=[];perimeter=orthogonalPerimeter;outlineConnect=0;targetShapes=umlLifeline;portConstraint=eastwest;newEdgeStyle={&quot;edgeStyle&quot;:&quot;elbowEdgeStyle&quot;,&quot;elbow&quot;:&quot;vertical&quot;,&quot;curved&quot;:0,&quot;rounded&quot;:0};" parent="aM9ryv3xv72pqoxQDRHE-5" vertex="1">
          <mxGeometry x="45" y="135" width="10" height="130" as="geometry" />
        </mxCell>
        <mxCell id="h3a-lBS1YhKuFZ4VshCl-55" value="&lt;span style=&quot;color: rgba(0, 0, 0, 0); font-family: monospace; font-size: 0px; text-align: start;&quot;&gt;%3CmxGraphModel%3E%3Croot%3E%3CmxCell%20id%3D%220%22%2F%3E%3CmxCell%20id%3D%221%22%20parent%3D%220%22%2F%3E%3CmxCell%20id%3D%222%22%20value%3D%22%26lt%3Bfont%20style%3D%26quot%3Bfont-size%3A%209px%3B%26quot%3B%26gt%3B%5Bse%20n%C3%A3o%20houve%26lt%3B%2Ffont%26gt%3B%26lt%3Bdiv%20style%3D%26quot%3Bfont-size%3A%209px%3B%26quot%3B%26gt%3B%26lt%3Bfont%20style%3D%26quot%3Bfont-size%3A%209px%3B%26quot%3B%26gt%3Berro%5D%26lt%3B%2Ffont%26gt%3B%26lt%3B%2Fdiv%26gt%3B%22%20style%3D%22text%3Bhtml%3D1%3Balign%3Dcenter%3BverticalAlign%3Dmiddle%3Bresizable%3D0%3Bpoints%3D%5B%5D%3Bautosize%3D1%3BstrokeColor%3Dnone%3BfillColor%3Dnone%3BfontSize%3D9%3B%22%20vertex%3D%221%22%20parent%3D%221%22%3E%3CmxGeometry%20x%3D%22438%22%20y%3D%22306%22%20width%3D%2275%22%20height%3D%2234%22%20as%3D%22geometry%22%2F%3E%3C%2FmxCell%3E%3C%2Froot%3E%3C%2FmxGraphModel%3E&lt;/span&gt;" style="html=1;points=[];perimeter=orthogonalPerimeter;outlineConnect=0;targetShapes=umlLifeline;portConstraint=eastwest;newEdgeStyle={&quot;edgeStyle&quot;:&quot;elbowEdgeStyle&quot;,&quot;elbow&quot;:&quot;vertical&quot;,&quot;curved&quot;:0,&quot;rounded&quot;:0};" vertex="1" parent="aM9ryv3xv72pqoxQDRHE-5">
          <mxGeometry x="45" y="302" width="10" height="42" as="geometry" />
        </mxCell>
        <mxCell id="h3a-lBS1YhKuFZ4VshCl-1" value="&lt;span&gt;:APIB3&lt;/span&gt;" style="shape=umlLifeline;perimeter=lifelinePerimeter;whiteSpace=wrap;html=1;container=0;dropTarget=0;collapsible=0;recursiveResize=0;outlineConnect=0;portConstraint=eastwest;newEdgeStyle={&quot;edgeStyle&quot;:&quot;elbowEdgeStyle&quot;,&quot;elbow&quot;:&quot;vertical&quot;,&quot;curved&quot;:0,&quot;rounded&quot;:0};fontStyle=0" vertex="1" parent="1">
          <mxGeometry x="830" y="49" width="100" height="491" as="geometry" />
        </mxCell>
        <mxCell id="h3a-lBS1YhKuFZ4VshCl-2" value="" style="html=1;points=[];perimeter=orthogonalPerimeter;outlineConnect=0;targetShapes=umlLifeline;portConstraint=eastwest;newEdgeStyle={&quot;edgeStyle&quot;:&quot;elbowEdgeStyle&quot;,&quot;elbow&quot;:&quot;vertical&quot;,&quot;curved&quot;:0,&quot;rounded&quot;:0};" vertex="1" parent="h3a-lBS1YhKuFZ4VshCl-1">
          <mxGeometry x="45" y="157" width="10" height="54" as="geometry" />
        </mxCell>
        <mxCell id="h3a-lBS1YhKuFZ4VshCl-4" value="" style="endArrow=none;dashed=1;html=1;rounded=0;" edge="1" parent="1" source="h3a-lBS1YhKuFZ4VshCl-7">
          <mxGeometry width="50" height="50" relative="1" as="geometry">
            <mxPoint x="1032" y="390" as="sourcePoint" />
            <mxPoint x="1032" y="121" as="targetPoint" />
          </mxGeometry>
        </mxCell>
        <mxCell id="h3a-lBS1YhKuFZ4VshCl-5" value="API B3" style="shape=umlActor;verticalLabelPosition=bottom;verticalAlign=top;html=1;outlineConnect=0;" vertex="1" parent="1">
          <mxGeometry x="1017" y="34" width="30" height="60" as="geometry" />
        </mxCell>
        <mxCell id="h3a-lBS1YhKuFZ4VshCl-6" value="" style="endArrow=none;dashed=1;html=1;rounded=0;" edge="1" parent="1" target="h3a-lBS1YhKuFZ4VshCl-7">
          <mxGeometry width="50" height="50" relative="1" as="geometry">
            <mxPoint x="1032" y="539" as="sourcePoint" />
            <mxPoint x="1032" y="153" as="targetPoint" />
          </mxGeometry>
        </mxCell>
        <mxCell id="h3a-lBS1YhKuFZ4VshCl-7" value="" style="rounded=0;whiteSpace=wrap;html=1;" vertex="1" parent="1">
          <mxGeometry x="1027" y="220" width="10" height="21" as="geometry" />
        </mxCell>
        <mxCell id="h3a-lBS1YhKuFZ4VshCl-8" value="" style="endArrow=none;dashed=1;html=1;rounded=0;" edge="1" parent="1">
          <mxGeometry width="50" height="50" relative="1" as="geometry">
            <mxPoint x="234" y="530" as="sourcePoint" />
            <mxPoint x="234" y="112" as="targetPoint" />
          </mxGeometry>
        </mxCell>
        <mxCell id="h3a-lBS1YhKuFZ4VshCl-9" value="Usuário" style="shape=umlActor;verticalLabelPosition=bottom;verticalAlign=top;html=1;outlineConnect=0;" vertex="1" parent="1">
          <mxGeometry x="219" y="33" width="30" height="60" as="geometry" />
        </mxCell>
        <mxCell id="h3a-lBS1YhKuFZ4VshCl-10" value="" style="rounded=0;whiteSpace=wrap;html=1;" vertex="1" parent="1">
          <mxGeometry x="229" y="138" width="10" height="372" as="geometry" />
        </mxCell>
        <mxCell id="h3a-lBS1YhKuFZ4VshCl-11" value="" style="endArrow=classic;html=1;rounded=0;fontSize=12;startSize=8;endSize=8;curved=1;" edge="1" parent="1" target="aM9ryv3xv72pqoxQDRHE-2">
          <mxGeometry width="50" height="50" relative="1" as="geometry">
            <mxPoint x="239" y="156" as="sourcePoint" />
            <mxPoint x="289" y="106" as="targetPoint" />
          </mxGeometry>
        </mxCell>
        <mxCell id="h3a-lBS1YhKuFZ4VshCl-14" value="o usuário acessa a tela&lt;div style=&quot;font-size: 10px;&quot;&gt;de carteira&lt;/div&gt;" style="edgeLabel;html=1;align=center;verticalAlign=middle;resizable=0;points=[];fontSize=10;" vertex="1" connectable="0" parent="h3a-lBS1YhKuFZ4VshCl-11">
          <mxGeometry x="0.5382" y="2" relative="1" as="geometry">
            <mxPoint x="-42" y="19" as="offset" />
          </mxGeometry>
        </mxCell>
        <mxCell id="h3a-lBS1YhKuFZ4VshCl-12" value="[se logado]" style="text;html=1;align=center;verticalAlign=middle;whiteSpace=wrap;rounded=0;fontSize=10;" vertex="1" parent="1">
          <mxGeometry x="275" y="126" width="60" height="30" as="geometry" />
        </mxCell>
        <mxCell id="h3a-lBS1YhKuFZ4VshCl-17" value=":Usuario" style="shape=umlLifeline;perimeter=lifelinePerimeter;whiteSpace=wrap;html=1;container=0;dropTarget=0;collapsible=0;recursiveResize=0;outlineConnect=0;portConstraint=eastwest;newEdgeStyle={&quot;edgeStyle&quot;:&quot;elbowEdgeStyle&quot;,&quot;elbow&quot;:&quot;vertical&quot;,&quot;curved&quot;:0,&quot;rounded&quot;:0};" vertex="1" parent="1">
          <mxGeometry x="491" y="49" width="100" height="484" as="geometry" />
        </mxCell>
        <mxCell id="h3a-lBS1YhKuFZ4VshCl-18" value="" style="html=1;points=[];perimeter=orthogonalPerimeter;outlineConnect=0;targetShapes=umlLifeline;portConstraint=eastwest;newEdgeStyle={&quot;edgeStyle&quot;:&quot;elbowEdgeStyle&quot;,&quot;elbow&quot;:&quot;vertical&quot;,&quot;curved&quot;:0,&quot;rounded&quot;:0};" vertex="1" parent="h3a-lBS1YhKuFZ4VshCl-17">
          <mxGeometry x="45" y="120" width="10" height="309" as="geometry" />
        </mxCell>
        <mxCell id="h3a-lBS1YhKuFZ4VshCl-19" value="" style="endArrow=classic;html=1;rounded=0;fontSize=12;startSize=8;endSize=8;curved=1;" edge="1" parent="1">
          <mxGeometry width="50" height="50" relative="1" as="geometry">
            <mxPoint x="395" y="170" as="sourcePoint" />
            <mxPoint x="535" y="170" as="targetPoint" />
          </mxGeometry>
        </mxCell>
        <mxCell id="h3a-lBS1YhKuFZ4VshCl-20" value="getCarteira()" style="edgeLabel;html=1;align=center;verticalAlign=middle;resizable=0;points=[];fontSize=10;" vertex="1" connectable="0" parent="h3a-lBS1YhKuFZ4VshCl-19">
          <mxGeometry x="0.5382" y="2" relative="1" as="geometry">
            <mxPoint x="-39" y="-6" as="offset" />
          </mxGeometry>
        </mxCell>
        <mxCell id="h3a-lBS1YhKuFZ4VshCl-21" value="" style="endArrow=classic;html=1;rounded=0;fontSize=12;startSize=8;endSize=8;curved=1;" edge="1" parent="1" target="aM9ryv3xv72pqoxQDRHE-6">
          <mxGeometry width="50" height="50" relative="1" as="geometry">
            <mxPoint x="546" y="184" as="sourcePoint" />
            <mxPoint x="686" y="184" as="targetPoint" />
          </mxGeometry>
        </mxCell>
        <mxCell id="h3a-lBS1YhKuFZ4VshCl-22" value="sincronizaCarteira()" style="edgeLabel;html=1;align=center;verticalAlign=middle;resizable=0;points=[];fontSize=10;" vertex="1" connectable="0" parent="h3a-lBS1YhKuFZ4VshCl-21">
          <mxGeometry x="0.5382" y="2" relative="1" as="geometry">
            <mxPoint x="-49" y="-7" as="offset" />
          </mxGeometry>
        </mxCell>
        <mxCell id="h3a-lBS1YhKuFZ4VshCl-23" value="" style="endArrow=classic;html=1;rounded=0;fontSize=12;startSize=8;endSize=8;curved=1;" edge="1" parent="1">
          <mxGeometry width="50" height="50" relative="1" as="geometry">
            <mxPoint x="717" y="205" as="sourcePoint" />
            <mxPoint x="875" y="206" as="targetPoint" />
          </mxGeometry>
        </mxCell>
        <mxCell id="h3a-lBS1YhKuFZ4VshCl-24" value="sincronizaCarteira()" style="edgeLabel;html=1;align=center;verticalAlign=middle;resizable=0;points=[];fontSize=10;" vertex="1" connectable="0" parent="h3a-lBS1YhKuFZ4VshCl-23">
          <mxGeometry x="0.5382" y="2" relative="1" as="geometry">
            <mxPoint x="-42" y="-7" as="offset" />
          </mxGeometry>
        </mxCell>
        <mxCell id="h3a-lBS1YhKuFZ4VshCl-25" value="" style="endArrow=classic;html=1;rounded=0;fontSize=12;startSize=8;endSize=8;curved=1;" edge="1" parent="1">
          <mxGeometry width="50" height="50" relative="1" as="geometry">
            <mxPoint x="885" y="220" as="sourcePoint" />
            <mxPoint x="1026" y="220" as="targetPoint" />
          </mxGeometry>
        </mxCell>
        <mxCell id="h3a-lBS1YhKuFZ4VshCl-26" value="solicita dados mais&lt;div&gt;atualizados da carteira&lt;/div&gt;" style="edgeLabel;html=1;align=center;verticalAlign=middle;resizable=0;points=[];fontSize=10;" vertex="1" connectable="0" parent="h3a-lBS1YhKuFZ4VshCl-25">
          <mxGeometry x="0.5382" y="2" relative="1" as="geometry">
            <mxPoint x="-41" y="-14" as="offset" />
          </mxGeometry>
        </mxCell>
        <mxCell id="h3a-lBS1YhKuFZ4VshCl-27" value="" style="endArrow=open;html=1;rounded=0;fontSize=12;startSize=8;endSize=8;curved=1;dashed=1;endFill=0;" edge="1" parent="1">
          <mxGeometry width="50" height="50" relative="1" as="geometry">
            <mxPoint x="1027" y="241" as="sourcePoint" />
            <mxPoint x="885" y="241" as="targetPoint" />
          </mxGeometry>
        </mxCell>
        <mxCell id="h3a-lBS1YhKuFZ4VshCl-28" value="retorna os dados&lt;div style=&quot;font-size: 10px;&quot;&gt;atualizados da carteira&lt;/div&gt;&lt;div style=&quot;font-size: 10px;&quot;&gt;ou erro&lt;/div&gt;" style="edgeLabel;html=1;align=center;verticalAlign=middle;resizable=0;points=[];fontSize=10;" vertex="1" connectable="0" parent="h3a-lBS1YhKuFZ4VshCl-27">
          <mxGeometry x="0.0958" y="1" relative="1" as="geometry">
            <mxPoint x="8" y="20" as="offset" />
          </mxGeometry>
        </mxCell>
        <mxCell id="h3a-lBS1YhKuFZ4VshCl-29" value="" style="endArrow=open;html=1;rounded=0;fontSize=12;startSize=8;endSize=8;curved=1;endFill=0;dashed=1;" edge="1" parent="1" target="aM9ryv3xv72pqoxQDRHE-6">
          <mxGeometry width="50" height="50" relative="1" as="geometry">
            <mxPoint x="875" y="260" as="sourcePoint" />
            <mxPoint x="925" y="210" as="targetPoint" />
          </mxGeometry>
        </mxCell>
        <mxCell id="h3a-lBS1YhKuFZ4VshCl-30" value="dados atualizados ou&lt;div style=&quot;font-size: 9px;&quot;&gt;erro&lt;/div&gt;" style="edgeLabel;html=1;align=center;verticalAlign=middle;resizable=0;points=[];fontSize=9;" vertex="1" connectable="0" parent="h3a-lBS1YhKuFZ4VshCl-29">
          <mxGeometry x="0.0591" relative="1" as="geometry">
            <mxPoint x="4" y="14" as="offset" />
          </mxGeometry>
        </mxCell>
        <mxCell id="h3a-lBS1YhKuFZ4VshCl-33" value="verifica erro" style="verticalLabelPosition=middle;verticalAlign=middle;html=1;shape=card;whiteSpace=wrap;size=8;arcSize=12;flipH=1;flipV=1;labelPosition=center;align=center;fontSize=9;" vertex="1" parent="1">
          <mxGeometry x="139" y="286" width="67" height="22" as="geometry" />
        </mxCell>
        <mxCell id="h3a-lBS1YhKuFZ4VshCl-34" value="&lt;font style=&quot;font-size: 9px;&quot;&gt;[se não houve&lt;/font&gt;&lt;div style=&quot;font-size: 9px;&quot;&gt;&lt;font style=&quot;font-size: 9px;&quot;&gt;erro]&lt;/font&gt;&lt;/div&gt;" style="text;html=1;align=center;verticalAlign=middle;resizable=0;points=[];autosize=1;strokeColor=none;fillColor=none;fontSize=9;" vertex="1" parent="1">
          <mxGeometry x="139" y="305" width="75" height="34" as="geometry" />
        </mxCell>
        <mxCell id="h3a-lBS1YhKuFZ4VshCl-35" value="" style="endArrow=open;html=1;rounded=0;fontSize=12;startSize=8;endSize=8;curved=1;endFill=0;dashed=1;" edge="1" parent="1" target="h3a-lBS1YhKuFZ4VshCl-18">
          <mxGeometry width="50" height="50" relative="1" as="geometry">
            <mxPoint x="707" y="314" as="sourcePoint" />
            <mxPoint x="549" y="314" as="targetPoint" />
          </mxGeometry>
        </mxCell>
        <mxCell id="h3a-lBS1YhKuFZ4VshCl-36" value="retorna dados atualizados" style="edgeLabel;html=1;align=center;verticalAlign=middle;resizable=0;points=[];fontSize=9;" vertex="1" connectable="0" parent="h3a-lBS1YhKuFZ4VshCl-35">
          <mxGeometry x="0.0591" relative="1" as="geometry">
            <mxPoint x="5" y="-7" as="offset" />
          </mxGeometry>
        </mxCell>
        <mxCell id="h3a-lBS1YhKuFZ4VshCl-38" value="&lt;font style=&quot;font-size: 9px;&quot;&gt;[se houve erro&lt;/font&gt;&lt;div&gt;&lt;span style=&quot;background-color: initial;&quot;&gt;na sincronização]&lt;/span&gt;&lt;/div&gt;" style="text;html=1;align=center;verticalAlign=middle;resizable=0;points=[];autosize=1;strokeColor=none;fillColor=none;fontSize=9;" vertex="1" parent="1">
          <mxGeometry x="135" y="346" width="88" height="34" as="geometry" />
        </mxCell>
        <mxCell id="h3a-lBS1YhKuFZ4VshCl-39" value="" style="endArrow=classic;html=1;rounded=0;fontSize=12;startSize=8;endSize=8;curved=1;" edge="1" parent="1">
          <mxGeometry width="50" height="50" relative="1" as="geometry">
            <mxPoint x="718" y="354" as="sourcePoint" />
            <mxPoint x="724" y="376" as="targetPoint" />
            <Array as="points">
              <mxPoint x="760" y="359" />
            </Array>
          </mxGeometry>
        </mxCell>
        <mxCell id="h3a-lBS1YhKuFZ4VshCl-42" value="getCarteiraLocal()" style="edgeLabel;html=1;align=center;verticalAlign=middle;resizable=0;points=[];fontSize=8;" vertex="1" connectable="0" parent="h3a-lBS1YhKuFZ4VshCl-39">
          <mxGeometry x="0.4751" y="-4" relative="1" as="geometry">
            <mxPoint x="36" y="-1" as="offset" />
          </mxGeometry>
        </mxCell>
        <mxCell id="h3a-lBS1YhKuFZ4VshCl-40" value="&lt;span style=&quot;color: rgba(0, 0, 0, 0); font-family: monospace; font-size: 0px; text-align: start;&quot;&gt;%3CmxGraphModel%3E%3Croot%3E%3CmxCell%20id%3D%220%22%2F%3E%3CmxCell%20id%3D%221%22%20parent%3D%220%22%2F%3E%3CmxCell%20id%3D%222%22%20value%3D%22%26lt%3Bfont%20style%3D%26quot%3Bfont-size%3A%209px%3B%26quot%3B%26gt%3B%5Bse%20n%C3%A3o%20houve%26lt%3B%2Ffont%26gt%3B%26lt%3Bdiv%20style%3D%26quot%3Bfont-size%3A%209px%3B%26quot%3B%26gt%3B%26lt%3Bfont%20style%3D%26quot%3Bfont-size%3A%209px%3B%26quot%3B%26gt%3Berro%5D%26lt%3B%2Ffont%26gt%3B%26lt%3B%2Fdiv%26gt%3B%22%20style%3D%22text%3Bhtml%3D1%3Balign%3Dcenter%3BverticalAlign%3Dmiddle%3Bresizable%3D0%3Bpoints%3D%5B%5D%3Bautosize%3D1%3BstrokeColor%3Dnone%3BfillColor%3Dnone%3BfontSize%3D9%3B%22%20vertex%3D%221%22%20parent%3D%221%22%3E%3CmxGeometry%20x%3D%22438%22%20y%3D%22306%22%20width%3D%2275%22%20height%3D%2234%22%20as%3D%22geometry%22%2F%3E%3C%2FmxCell%3E%3C%2Froot%3E%3C%2FmxGraphModel%3E&lt;/span&gt;" style="html=1;points=[];perimeter=orthogonalPerimeter;outlineConnect=0;targetShapes=umlLifeline;portConstraint=eastwest;newEdgeStyle={&quot;edgeStyle&quot;:&quot;elbowEdgeStyle&quot;,&quot;elbow&quot;:&quot;vertical&quot;,&quot;curved&quot;:0,&quot;rounded&quot;:0};" vertex="1" parent="1">
          <mxGeometry x="713" y="366" width="10" height="18" as="geometry" />
        </mxCell>
        <mxCell id="h3a-lBS1YhKuFZ4VshCl-43" value="" style="endArrow=open;html=1;rounded=0;fontSize=12;startSize=8;endSize=8;curved=1;endFill=0;dashed=1;" edge="1" parent="1">
          <mxGeometry width="50" height="50" relative="1" as="geometry">
            <mxPoint x="707" y="393" as="sourcePoint" />
            <mxPoint x="546" y="393" as="targetPoint" />
          </mxGeometry>
        </mxCell>
        <mxCell id="h3a-lBS1YhKuFZ4VshCl-44" value="retorna dados locais" style="edgeLabel;html=1;align=center;verticalAlign=middle;resizable=0;points=[];fontSize=9;" vertex="1" connectable="0" parent="h3a-lBS1YhKuFZ4VshCl-43">
          <mxGeometry x="0.0591" relative="1" as="geometry">
            <mxPoint x="5" y="-7" as="offset" />
          </mxGeometry>
        </mxCell>
        <mxCell id="h3a-lBS1YhKuFZ4VshCl-45" value="" style="endArrow=classic;html=1;rounded=0;fontSize=12;startSize=8;endSize=8;curved=1;" edge="1" parent="1" target="aM9ryv3xv72pqoxQDRHE-2">
          <mxGeometry width="50" height="50" relative="1" as="geometry">
            <mxPoint x="536" y="413" as="sourcePoint" />
            <mxPoint x="586" y="363" as="targetPoint" />
          </mxGeometry>
        </mxCell>
        <mxCell id="h3a-lBS1YhKuFZ4VshCl-46" value="emiteNotificacao(&quot;dados&lt;div style=&quot;font-size: 9px;&quot;&gt;podem estar desatualizados&quot;)&lt;/div&gt;" style="edgeLabel;html=1;align=center;verticalAlign=middle;resizable=0;points=[];fontSize=9;" vertex="1" connectable="0" parent="h3a-lBS1YhKuFZ4VshCl-45">
          <mxGeometry x="0.2199" relative="1" as="geometry">
            <mxPoint x="21" y="-14" as="offset" />
          </mxGeometry>
        </mxCell>
        <mxCell id="h3a-lBS1YhKuFZ4VshCl-47" value="" style="endArrow=open;html=1;rounded=0;fontSize=12;startSize=8;endSize=8;curved=1;endFill=0;dashed=1;" edge="1" parent="1">
          <mxGeometry width="50" height="50" relative="1" as="geometry">
            <mxPoint x="536" y="478" as="sourcePoint" />
            <mxPoint x="395" y="478" as="targetPoint" />
          </mxGeometry>
        </mxCell>
        <mxCell id="h3a-lBS1YhKuFZ4VshCl-48" value="dados da carteira do usuário" style="edgeLabel;html=1;align=center;verticalAlign=middle;resizable=0;points=[];fontSize=9;" vertex="1" connectable="0" parent="h3a-lBS1YhKuFZ4VshCl-47">
          <mxGeometry x="0.2199" relative="1" as="geometry">
            <mxPoint x="20" y="-8" as="offset" />
          </mxGeometry>
        </mxCell>
        <mxCell id="h3a-lBS1YhKuFZ4VshCl-51" value="" style="endArrow=open;html=1;rounded=0;fontSize=12;startSize=8;endSize=8;curved=1;endFill=0;dashed=1;entryX=1.167;entryY=0.953;entryDx=0;entryDy=0;entryPerimeter=0;" edge="1" parent="1" target="h3a-lBS1YhKuFZ4VshCl-10">
          <mxGeometry width="50" height="50" relative="1" as="geometry">
            <mxPoint x="385" y="493" as="sourcePoint" />
            <mxPoint x="244" y="493" as="targetPoint" />
          </mxGeometry>
        </mxCell>
        <mxCell id="h3a-lBS1YhKuFZ4VshCl-52" value="exibe carteira ao usuário" style="edgeLabel;html=1;align=center;verticalAlign=middle;resizable=0;points=[];fontSize=9;" vertex="1" connectable="0" parent="h3a-lBS1YhKuFZ4VshCl-51">
          <mxGeometry x="0.2199" relative="1" as="geometry">
            <mxPoint x="19" y="11" as="offset" />
          </mxGeometry>
        </mxCell>
        <mxCell id="h3a-lBS1YhKuFZ4VshCl-53" value="" style="endArrow=classic;html=1;rounded=0;fontSize=12;startSize=8;endSize=8;curved=1;entryX=1.133;entryY=0.78;entryDx=0;entryDy=0;entryPerimeter=0;" edge="1" parent="1" target="h3a-lBS1YhKuFZ4VshCl-10">
          <mxGeometry width="50" height="50" relative="1" as="geometry">
            <mxPoint x="385" y="429" as="sourcePoint" />
            <mxPoint x="244" y="429" as="targetPoint" />
          </mxGeometry>
        </mxCell>
        <mxCell id="h3a-lBS1YhKuFZ4VshCl-54" value="exibe notificação ao usuário&lt;div style=&quot;font-size: 8px;&quot;&gt;&quot;dados podem estar desatualizados&quot;&lt;/div&gt;" style="edgeLabel;html=1;align=center;verticalAlign=middle;resizable=0;points=[];fontSize=8;" vertex="1" connectable="0" parent="h3a-lBS1YhKuFZ4VshCl-53">
          <mxGeometry x="0.2199" relative="1" as="geometry">
            <mxPoint x="17" y="-19" as="offset" />
          </mxGeometry>
        </mxCell>
        <mxCell id="h3a-lBS1YhKuFZ4VshCl-56" value="UC-19&lt;div&gt;Visualizar carteira&lt;/div&gt;&lt;div&gt;de ações&lt;/div&gt;" style="strokeWidth=2;html=1;shape=mxgraph.flowchart.start_1;whiteSpace=wrap;" vertex="1" parent="1">
          <mxGeometry x="538" y="-81" width="134" height="83" as="geometry" />
        </mxCell>
        <mxCell id="h3a-lBS1YhKuFZ4VshCl-57" value="" style="endArrow=classic;html=1;rounded=0;fontSize=12;startSize=8;endSize=8;curved=1;fillColor=#dae8fc;strokeColor=#6c8ebf;" edge="1" parent="1">
          <mxGeometry width="50" height="50" relative="1" as="geometry">
            <mxPoint x="155" y="532" as="sourcePoint" />
            <mxPoint x="215" y="493" as="targetPoint" />
            <Array as="points">
              <mxPoint x="162" y="498" />
            </Array>
          </mxGeometry>
        </mxCell>
        <mxCell id="h3a-lBS1YhKuFZ4VshCl-58" value="&lt;font&gt;a visualização da carteira será condição de guarda nos próximos casos de uso&lt;/font&gt;" style="rounded=1;whiteSpace=wrap;html=1;fillColor=none;strokeColor=#6c8ebf;dashed=1;fontColor=#0066CC;" vertex="1" parent="1">
          <mxGeometry x="96" y="532" width="120" height="82" as="geometry" />
        </mxCell>
      </root>
    </mxGraphModel>
  </diagram>
</mxfile>
